<svg xmlns="http://www.w3.org/2000/svg" width="19" height="18" fill="none" viewBox="0 0 19 18">
  <g clip-path="url(#a)">
    <path fill="#fff" fill-rule="evenodd" d="M10.162 8.96c.122-.074.226-.23.31-.403 1.098.45 1.87 1.51 1.87 2.747 0 1.644-1.362 2.976-3.043 2.976-.69 0-1.326-.224-1.836-.603a7.201 7.201 0 0 1-.418-.217c-.175-.097-.29-.16-.361-.15-.21.028-.15.221-.094.397.038.119.073.23.018.276-.056.048-.24-.128-.455-.332-.292-.28-.642-.613-.807-.512-.13.079-.004.294.151.557l.012.02c.065.11.141.224.21.327.141.21.254.379.198.408-.069.034-.547-.288-.95-.736-.154-.173-.305-.36-.445-.534-.306-.38-.56-.698-.704-.66-.172.045-.042.4.15.742.089.16.194.322.285.463.142.22.25.386.21.406-.052.028-.515-.424-.83-.993a10.619 10.619 0 0 1-.471-1.015c-.138-.328-.24-.573-.308-.597-.235-.086-.235.393-.14 1.084.012.09.03.185.052.281C3.68 15.848 6.486 18 9.806 18c4.061 0 7.354-3.22 7.354-7.192 0-3.78-2.983-6.88-6.772-7.17.005-.178.098-.53.098-.53s.669-1.62.704-1.965l.008-.075C11.24.695 11.318 0 10.72 0c-.32 0-.468.237-.638.51-.065.103-.133.213-.216.315-.593.741-1.59 1.666-2.155 2.158C6.516 4.025 5.343 4.881 4.659 5.38c-.31.227-.52.38-.586.443-.49.478-2.245 3.644-2.245 3.644s-.567 1.016-.366 1.222c.202.206.689.159.689.159s6.537-1.5 7.122-1.618c.158-.032.269-.05.354-.064.232-.039.274-.046.535-.205ZM5.541 7.035c-.351.333-.933 1.13-.933 1.13s1.081.066 1.677-.5c.596-.567.46-1.532.46-1.532s-.854.568-1.204.902Z" clip-rule="evenodd"/>
  </g>
  <defs>
    <clipPath id="a">
      <path fill="#fff" d="M0 0h18v18H0z" transform="translate(.294)"/>
    </clipPath>
  </defs>
</svg>
