<svg xmlns="http://www.w3.org/2000/svg" width="19" height="18" fill="none" viewBox="0 0 19 18">
  <g clip-path="url(#a)">
    <path fill="#fff" fill-rule="evenodd" d="m4.494 14.273 2.887-.837 2.494 4.56a.009.009 0 0 0 .015 0l2.493-4.56 2.888.837a.008.008 0 0 0 .01-.01l-.837-2.83 4.434-2.426a.009.009 0 0 0 0-.015l-4.47-2.445.873-2.953a.009.009 0 0 0-.01-.01l-2.955.856L9.89.004a.009.009 0 0 0-.015 0L7.449 4.44l-2.955-.857a.009.009 0 0 0-.01.01l.873 2.954-4.47 2.445a.009.009 0 0 0 0 .015l4.434 2.425-.838 2.83a.009.009 0 0 0 .01.01Zm2.24-5.242 2.046 1.118 1.118 2.046a.008.008 0 0 0 .015 0l1.119-2.046 2.045-1.118a.009.009 0 0 0 0-.015l-2.045-1.119-1.119-2.045a.009.009 0 0 0-.015 0L8.78 7.897 6.734 9.016a.009.009 0 0 0 0 .015Z" clip-rule="evenodd"/>
  </g>
  <defs>
    <clipPath id="a">
      <path fill="#fff" d="M0 0h18v18H0z" transform="translate(.882)"/>
    </clipPath>
  </defs>
</svg>
