<svg xmlns="http://www.w3.org/2000/svg" width="19" height="18" fill="none" viewBox="0 0 19 18">
  <g clip-path="url(#a)">
    <path fill="#fff" fill-rule="evenodd" d="M3.749 1.496A1.986 1.986 0 0 1 7.336.9h.581a1.986 1.986 0 0 1 3.246.6h.486a1.986 1.986 0 0 1 2.874.9h1.322c.011 0 .022.003.031.008a1.985 1.985 0 0 1 2.169 1.977v6.062l-.003.108C17.922 14.685 14.208 18 9.645 18c-4.64 0-8.4-3.425-8.4-7.65 0-2.04.876-3.892 2.304-5.264-.003 1.988.03 4.044.185 4.009.415-.095.09-6.253.015-7.599Z" clip-rule="evenodd"/>
  </g>
  <defs>
    <clipPath id="a">
      <path fill="#fff" d="M0 0h18v18H0z" transform="translate(.647)"/>
    </clipPath>
  </defs>
</svg>
