<svg xmlns="http://www.w3.org/2000/svg" width="19" height="18" fill="none" viewBox="0 0 19 18">
  <g clip-path="url(#a)">
    <path fill="#fff" fill-rule="evenodd" d="M3.484 15.492A8.164 8.164 0 0 1 3.3 3.769C6.488.58 16.646.367 16.646.367s1.387 11.759-1.801 14.947a8.166 8.166 0 0 1-10.407.95l2.563-3.145 4.098-.885-3.345-.334L9.88 9.736l2.42-.53-1.914-.567L12.3 5.187 9.58 8.24 8.528 6.757l.37 2.449-1.896 2.136-.878-2.703v3.595l-2.64 3.258Z" clip-rule="evenodd"/>
  </g>
  <defs>
    <clipPath id="a">
      <path fill="#fff" d="M0 0h18v18H0z" transform="translate(.059)"/>
    </clipPath>
  </defs>
</svg>
