<svg xmlns="http://www.w3.org/2000/svg" width="19" height="18" fill="none" viewBox="0 0 19 18">
  <g clip-path="url(#a)">
    <path fill="#fff" fill-rule="evenodd" d="M4.375 15.46a.007.007 0 0 1-.007-.01L8.964 2.467a.007.007 0 0 1 .006-.005h4.906c.003 0 .006.002.007.005L18.41 15.45a.007.007 0 0 1-.006.01H4.375Zm-3.957.05a.007.007 0 0 1-.007-.009l3.422-9.136a.007.007 0 0 1 .007-.004h2.973c.005 0 .009.004.007.009l-3.31 9.136a.007.007 0 0 1-.006.005H.418Z" clip-rule="evenodd"/>
  </g>
  <defs>
    <clipPath id="a">
      <path fill="#fff" d="M0 0h18v18H0z" transform="translate(.41)"/>
    </clipPath>
  </defs>
</svg>
