<svg xmlns="http://www.w3.org/2000/svg" width="19" height="18" fill="none" viewBox="0 0 19 18">
  <g clip-path="url(#a)">
    <path fill="#fff" fill-rule="evenodd" d="M16.145 14.948s-2.27 1.82-6.786 1.067c-3.427-.572-5.254-4.35-5.254-6.38 0-4.814 3.563-5.91 5.971-5.91 2.41 0 3.98 2.35 3.98 4.168S12.772 11.3 10.77 11.3c-2.001 0-2.594-1.405-2.594-2.696 0-1.292 1.045-1.747 1.998-1.747.954 0 1.28.813 1.28 1.513s-.543.95-.995.95c-.453 0-.498-.229-.67-.469-.174-.24.22-1.148-.429-1.148s-.77 1.044-.77 1.044.237 2.016 2.18 1.981c1.944-.035 2.866-1.537 2.598-3.025-.268-1.488-1.712-3.068-4.246-2.749-2.533.32-3.568 2.88-3.112 5.616.456 2.736 3.734 4.321 6.31 3.75 2.578-.57 5.145-2.435 5.145-7.166 0-4.73-4.097-7.574-8.982-7.105C3.597.519.564 4.79.758 9.921c.194 5.132 5.064 7.927 9.181 8.07 4.118.145 6.642-2.239 6.642-2.239s.567-.506.345-.901c-.223-.396-.78.097-.78.097Z" clip-rule="evenodd"/>
  </g>
  <defs>
    <clipPath id="a">
      <path fill="#fff" d="M0 0h18v18H0z" transform="translate(.117)"/>
    </clipPath>
  </defs>
</svg>
