<svg xmlns="http://www.w3.org/2000/svg" width="19" height="18" fill="none" viewBox="0 0 19 18">
  <g clip-path="url(#a)">
    <path fill="#fff" fill-rule="evenodd" d="M14.714 8.605a.006.006 0 0 1-.001-.005l1.148-6.696c0-.003.004-.005.007-.005h.363c.003 0 .005.002.006.004l2.587 8.192c.001.002 0 .005-.002.007l-1.907 1.49a.006.006 0 0 1-.01-.002l-2.19-2.985ZM.787 13.045c0 .002.002.005.005.005l3.932 1.286h.006l8.79-6.069a.006.006 0 0 0 .002-.004l.942-6.324a.006.006 0 0 0-.006-.008H6.673a.005.005 0 0 0-.005.003L.788 9.026a.006.006 0 0 0 0 .004v4.014Zm5.576 1.619 4.295 1.407.006-.001 5.115-3.669a.007.007 0 0 0 .001-.008l-1.917-2.854a.006.006 0 0 0-.009-.001l-7.491 5.126Z" clip-rule="evenodd"/>
  </g>
  <defs>
    <clipPath id="a">
      <path fill="#fff" d="M0 0h18v18H0z" transform="translate(.823)"/>
    </clipPath>
  </defs>
</svg>
