<svg xmlns="http://www.w3.org/2000/svg" width="24" height="24" fill="none" viewBox="0 0 24 24">
  <path fill="#000" d="M12 21a8.706 8.706 0 0 1-3.513-.713 9.16 9.16 0 0 1-2.85-1.924 9.154 9.154 0 0 1-1.924-2.85A8.723 8.723 0 0 1 3 12c0-1.25.238-2.421.713-3.513a9.16 9.16 0 0 1 1.924-2.85 9.153 9.153 0 0 1 2.85-1.924A8.723 8.723 0 0 1 12 3c1.25 0 2.421.238 3.513.713a9.16 9.16 0 0 1 2.85 1.924 9.167 9.167 0 0 1 1.925 2.85A8.689 8.689 0 0 1 21 12c0 1.25-.238 2.421-.713 3.513a9.16 9.16 0 0 1-1.924 2.85 9.167 9.167 0 0 1-2.85 1.925A8.689 8.689 0 0 1 12 21Zm1.7-2.2a6.92 6.92 0 0 0 3.25-1.85 6.92 6.92 0 0 0 1.85-3.25l-5.1 5.1Zm-1.675-.45 6.95-6.95-.1-.712a3.581 3.581 0 0 0-.175-.713l-7.6 7.6c.133.15.28.288.438.413.159.125.321.246.487.362Zm-1.85-1.975L18.05 8.5c-.1-.167-.2-.33-.3-.488a3.485 3.485 0 0 0-.35-.462L9.625 15.3c.083.183.171.362.263.537.092.175.188.354.287.538Zm-1-2.7 7.15-7.175a8.211 8.211 0 0 0-.488-.363 5.857 5.857 0 0 0-.512-.312L9 12.15c.017.267.038.525.063.775s.063.5.112.75Zm0-3.8 4.625-4.65a5.97 5.97 0 0 0-.75-.15c-.25-.033-.5-.058-.75-.075a6.03 6.03 0 0 0-2.025 1.975c-.533.833-.9 1.8-1.1 2.9Z"/>
</svg>
